<mxfile host="app.diagrams.net" modified="2023-08-25T13:33:44.178Z" agent="Mozilla/5.0 (Windows NT 10.0; Win64; x64) AppleWebKit/537.36 (KHTML, like Gecko) Chrome/116.0.0.0 Safari/537.36 Edg/116.0.1938.54" etag="Cdehk01MP383UfRXtAz9" version="21.6.6" type="device">
  <diagram name="Page-1" id="PS5HKhZ96iCUsTNX5sJB">
    <mxGraphModel dx="1382" dy="924" grid="1" gridSize="10" guides="1" tooltips="1" connect="1" arrows="1" fold="1" page="1" pageScale="1" pageWidth="1169" pageHeight="827" math="0" shadow="1">
      <root>
        <mxCell id="0" />
        <mxCell id="1" parent="0" />
        <mxCell id="WF0FvLTmc0KwHQgEOdgH-34" value="" style="group;movable=0;resizable=0;rotatable=0;deletable=0;editable=0;locked=1;connectable=0;" vertex="1" connectable="0" parent="1">
          <mxGeometry x="175" y="140" width="820" height="573.95" as="geometry" />
        </mxCell>
        <mxCell id="WF0FvLTmc0KwHQgEOdgH-2" value="Lab EMT Files" style="rounded=1;whiteSpace=wrap;html=1;" vertex="1" parent="WF0FvLTmc0KwHQgEOdgH-34">
          <mxGeometry width="146.86567164179107" height="73.95348837209303" as="geometry" />
        </mxCell>
        <mxCell id="WF0FvLTmc0KwHQgEOdgH-4" value="emt_to_csv.py" style="rounded=0;whiteSpace=wrap;html=1;" vertex="1" parent="WF0FvLTmc0KwHQgEOdgH-34">
          <mxGeometry x="220.29850746268653" width="146.86567164179107" height="73.95348837209303" as="geometry" />
        </mxCell>
        <mxCell id="WF0FvLTmc0KwHQgEOdgH-5" value="" style="edgeStyle=orthogonalEdgeStyle;rounded=0;orthogonalLoop=1;jettySize=auto;html=1;" edge="1" parent="WF0FvLTmc0KwHQgEOdgH-34" source="WF0FvLTmc0KwHQgEOdgH-2" target="WF0FvLTmc0KwHQgEOdgH-4">
          <mxGeometry relative="1" as="geometry" />
        </mxCell>
        <mxCell id="WF0FvLTmc0KwHQgEOdgH-6" value="RESTful Service" style="rounded=0;whiteSpace=wrap;html=1;" vertex="1" parent="WF0FvLTmc0KwHQgEOdgH-34">
          <mxGeometry x="220.29850746268653" y="147.90697674418607" width="146.86567164179107" height="73.95348837209303" as="geometry" />
        </mxCell>
        <mxCell id="WF0FvLTmc0KwHQgEOdgH-7" value="BLOB STORAGE&lt;br&gt;/raw/lab/exercise/*.csv&lt;br&gt;/raw/app/exercise/*.csv" style="rounded=0;whiteSpace=wrap;html=1;" vertex="1" parent="WF0FvLTmc0KwHQgEOdgH-34">
          <mxGeometry x="428.35820895522386" width="208.0597014925373" height="73.95348837209303" as="geometry" />
        </mxCell>
        <mxCell id="WF0FvLTmc0KwHQgEOdgH-11" value="" style="edgeStyle=orthogonalEdgeStyle;rounded=0;orthogonalLoop=1;jettySize=auto;html=1;" edge="1" parent="WF0FvLTmc0KwHQgEOdgH-34" source="WF0FvLTmc0KwHQgEOdgH-4" target="WF0FvLTmc0KwHQgEOdgH-7">
          <mxGeometry relative="1" as="geometry" />
        </mxCell>
        <mxCell id="WF0FvLTmc0KwHQgEOdgH-10" style="edgeStyle=orthogonalEdgeStyle;rounded=0;orthogonalLoop=1;jettySize=auto;html=1;entryX=0.5;entryY=1;entryDx=0;entryDy=0;" edge="1" parent="WF0FvLTmc0KwHQgEOdgH-34" source="WF0FvLTmc0KwHQgEOdgH-6" target="WF0FvLTmc0KwHQgEOdgH-7">
          <mxGeometry relative="1" as="geometry" />
        </mxCell>
        <mxCell id="WF0FvLTmc0KwHQgEOdgH-9" value="" style="edgeStyle=orthogonalEdgeStyle;rounded=0;orthogonalLoop=1;jettySize=auto;html=1;" edge="1" parent="WF0FvLTmc0KwHQgEOdgH-34" source="WF0FvLTmc0KwHQgEOdgH-8" target="WF0FvLTmc0KwHQgEOdgH-6">
          <mxGeometry relative="1" as="geometry" />
        </mxCell>
        <mxCell id="WF0FvLTmc0KwHQgEOdgH-8" value="IPad APP" style="rounded=1;whiteSpace=wrap;html=1;" vertex="1" parent="WF0FvLTmc0KwHQgEOdgH-34">
          <mxGeometry y="147.90697674418607" width="146.86567164179107" height="73.95348837209303" as="geometry" />
        </mxCell>
        <mxCell id="WF0FvLTmc0KwHQgEOdgH-13" value="&lt;b&gt;raw_transform.py &lt;/b&gt;&lt;br&gt;(Add Repetition Markers) and Perform Additional Transformations" style="rounded=0;whiteSpace=wrap;html=1;" vertex="1" parent="WF0FvLTmc0KwHQgEOdgH-34">
          <mxGeometry x="648.6567164179105" y="160.2325581395349" width="171.34328358208955" height="98.60465116279072" as="geometry" />
        </mxCell>
        <mxCell id="WF0FvLTmc0KwHQgEOdgH-14" style="edgeStyle=orthogonalEdgeStyle;rounded=0;orthogonalLoop=1;jettySize=auto;html=1;entryX=0.5;entryY=0;entryDx=0;entryDy=0;" edge="1" parent="WF0FvLTmc0KwHQgEOdgH-34" source="WF0FvLTmc0KwHQgEOdgH-7" target="WF0FvLTmc0KwHQgEOdgH-13">
          <mxGeometry relative="1" as="geometry" />
        </mxCell>
        <mxCell id="WF0FvLTmc0KwHQgEOdgH-17" value="&lt;font style=&quot;font-size: 7px;&quot;&gt;&lt;b&gt;DBFS&lt;/b&gt;&lt;br&gt;INTERMEDIATE_ZONE.EXERCISE_LAB&lt;br&gt;INTERMEDIATE_ZONE.EXERCISE_APP&lt;br&gt;&lt;/font&gt;" style="rounded=0;whiteSpace=wrap;html=1;" vertex="1" parent="WF0FvLTmc0KwHQgEOdgH-34">
          <mxGeometry x="428.35820895522386" y="308.139534883721" width="208.0597014925373" height="73.95348837209303" as="geometry" />
        </mxCell>
        <mxCell id="WF0FvLTmc0KwHQgEOdgH-18" style="edgeStyle=orthogonalEdgeStyle;rounded=0;orthogonalLoop=1;jettySize=auto;html=1;" edge="1" parent="WF0FvLTmc0KwHQgEOdgH-34" source="WF0FvLTmc0KwHQgEOdgH-13" target="WF0FvLTmc0KwHQgEOdgH-17">
          <mxGeometry relative="1" as="geometry" />
        </mxCell>
        <mxCell id="WF0FvLTmc0KwHQgEOdgH-19" value="&lt;font style=&quot;font-size: 9px;&quot;&gt;&lt;b&gt;generate_metrics.py&lt;br&gt;&lt;/b&gt;(Generate required metrics for each exercise)&lt;br&gt;&lt;/font&gt;" style="rounded=0;whiteSpace=wrap;html=1;" vertex="1" parent="WF0FvLTmc0KwHQgEOdgH-34">
          <mxGeometry x="134.62686567164178" y="308.139534883721" width="208.0597014925373" height="73.95348837209303" as="geometry" />
        </mxCell>
        <mxCell id="WF0FvLTmc0KwHQgEOdgH-20" value="" style="edgeStyle=orthogonalEdgeStyle;rounded=0;orthogonalLoop=1;jettySize=auto;html=1;" edge="1" parent="WF0FvLTmc0KwHQgEOdgH-34" source="WF0FvLTmc0KwHQgEOdgH-17" target="WF0FvLTmc0KwHQgEOdgH-19">
          <mxGeometry relative="1" as="geometry" />
        </mxCell>
        <mxCell id="WF0FvLTmc0KwHQgEOdgH-21" value="&lt;font style=&quot;font-size: 9px;&quot;&gt;&lt;b&gt;DBFS&lt;/b&gt;&lt;br&gt;METRICS_ZONE.EXERCISE&lt;br&gt;&lt;/font&gt;" style="rounded=0;whiteSpace=wrap;html=1;" vertex="1" parent="WF0FvLTmc0KwHQgEOdgH-34">
          <mxGeometry x="134.62686567164178" y="456.04651162790697" width="208.0597014925373" height="73.95348837209303" as="geometry" />
        </mxCell>
        <mxCell id="WF0FvLTmc0KwHQgEOdgH-24" value="" style="edgeStyle=orthogonalEdgeStyle;rounded=0;orthogonalLoop=1;jettySize=auto;html=1;" edge="1" parent="WF0FvLTmc0KwHQgEOdgH-34" source="WF0FvLTmc0KwHQgEOdgH-19" target="WF0FvLTmc0KwHQgEOdgH-21">
          <mxGeometry relative="1" as="geometry" />
        </mxCell>
        <mxCell id="WF0FvLTmc0KwHQgEOdgH-27" value="PowerBI Dashboard" style="rounded=1;whiteSpace=wrap;html=1;" vertex="1" parent="WF0FvLTmc0KwHQgEOdgH-34">
          <mxGeometry x="489.5570149253731" y="499.996511627907" width="146.86567164179107" height="73.95348837209303" as="geometry" />
        </mxCell>
        <mxCell id="WF0FvLTmc0KwHQgEOdgH-33" style="edgeStyle=orthogonalEdgeStyle;rounded=0;orthogonalLoop=1;jettySize=auto;html=1;entryX=0.5;entryY=0;entryDx=0;entryDy=0;" edge="1" parent="WF0FvLTmc0KwHQgEOdgH-34" source="WF0FvLTmc0KwHQgEOdgH-17" target="WF0FvLTmc0KwHQgEOdgH-27">
          <mxGeometry relative="1" as="geometry" />
        </mxCell>
        <mxCell id="WF0FvLTmc0KwHQgEOdgH-32" style="edgeStyle=orthogonalEdgeStyle;rounded=0;orthogonalLoop=1;jettySize=auto;html=1;entryX=0;entryY=0.5;entryDx=0;entryDy=0;" edge="1" parent="WF0FvLTmc0KwHQgEOdgH-34" source="WF0FvLTmc0KwHQgEOdgH-21" target="WF0FvLTmc0KwHQgEOdgH-27">
          <mxGeometry relative="1" as="geometry" />
        </mxCell>
      </root>
    </mxGraphModel>
  </diagram>
</mxfile>
